# xmcd
#
# Track frame offsets:
#	150
#	18233
#	43953
#	63364
#	80787
#	96168
#	121980
#	139214
#	159258
#	184094
#	201916
#
# Disc length: 2805 seconds
#
# Revision: 1
# Processed by: cddbd v1.5.2PL0 Copyright (c) Steve Scherf et al.
# Submitted via: dBpowerAMP V4.0
#
DISCID=970af30b
DTITLE=Joe Henry - Fuse
DYEAR=1999
DGENRE=Blues
TTITLE0=Monkey
TTITLE1=Angels
TTITLE2=Fuse
TTITLE3=Skin and Teeth
TTITLE4=Fat
TTITLE5=Want Too Much
TTITLE6=Curt Flood
TTITLE7=Like She Was a Hammer
TTITLE8=Great Lake
TTITLE9=Beautiful Hat
TTITLE10=We'll Meet Again
EXTD=
EXTT0=
EXTT1=
EXTT2=
EXTT3=
EXTT4=
EXTT5=
EXTT6=
EXTT7=
EXTT8=
EXTT9=
EXTT10=
PLAYORDER=
